<svg xmlns="http://www.w3.org/2000/svg" viewBox="0 0 800 1000" width="800" height="1000" role="img"
     aria-label="Chévere — Verde militar, vista espalda">
  <defs>
    <filter id="grano"><feTurbulence type="fractalNoise" baseFrequency="0.85" numOctaves="3"/>
      <feColorMatrix type="saturate" values="0"/><feComponentTransfer><feFuncA type="linear" slope="0.05"/></feComponentTransfer></filter>
    <linearGradient id="luz" x1="0" y1="0" x2="0" y2="1">
      <stop offset="0" stop-color="#ffffff" stop-opacity="0.14"/>
      <stop offset="0.55" stop-color="#ffffff" stop-opacity="0"/>
      <stop offset="1" stop-color="#000000" stop-opacity="0.12"/>
    </linearGradient>
  </defs>

  <rect width="800" height="1000" fill="#EFECE3"/>
  <text x="400" y="620" text-anchor="middle" font-family="Archivo Black, Arial Black, sans-serif"
        font-size="240" fill="#0A0A0A" opacity="0.045" letter-spacing="-8">GARZEZ</text>
  <g opacity="0.5">
    <rect x="0" y="0" width="800" height="4" fill="#FFC700"/>
    <rect x="0" y="996" width="800" height="4" fill="#E02B1D"/>
  </g>

  <g transform="translate(400 512) scale(1.12) translate(-300 -358)">
    <path d="
    M232 112 Q300 158 368 112 L456 140 L538 224 L566 406 L506 422 L450 228
    L450 604 L150 604 L150 228 L94 422 L34 406 L62 224 L144 140 Z" fill="#4B5540"/>
    <path d="
    M232 112 Q300 158 368 112 L456 140 L538 224 L566 406 L506 422 L450 228
    L450 604 L150 604 L150 228 L94 422 L34 406 L62 224 L144 140 Z" fill="url(#luz)"/>
    <path d="M232 112 C256 202 344 202 368 112 C338 154 262 154 232 112" fill="#2c3125" opacity="0.65"/>
              <path d="M246 122 C246 200 354 200 354 122" stroke="#2c3125" stroke-width="3" fill="none" stroke-linecap="round" opacity="0.45"/>
              <path d="M214 448 L386 448 L374 524 L226 524 Z" fill="#2c3125" opacity="0.2"/>
              <rect x="150" y="566" width="300" height="38" fill="#2c3125" opacity="0.26"/>
              <path d="M506 422 L566 406 M94 422 L34 406" stroke="#2c3125" stroke-width="3" fill="none" stroke-linecap="round" opacity="0.35"/>
              <circle cx="274" cy="182" r="6" fill="#2c3125"/><circle cx="326" cy="182" r="6" fill="#2c3125"/>
    <g><text x="300" y="276" text-anchor="middle" font-family="Space Mono, monospace"
             font-size="13" fill="#F4F1EA" opacity="0.7" letter-spacing="6">GARZEZ · CARACAS</text>
       <text x="300" y="320" text-anchor="middle" font-family="Archivo Black, Arial Black, sans-serif"
             font-size="24" fill="#F4F1EA" letter-spacing="-1">MODERNISMO</text>
       <g transform="translate(249, 346)">
         <rect width="34" height="9" fill="#FFC700"/><rect x="34" width="34" height="9" fill="#0B3CC1"/><rect x="68" width="34" height="9" fill="#E02B1D"/>
       </g></g>
  </g>

  <rect width="800" height="1000" filter="url(#grano)" opacity="0.55"/>
  <text x="34" y="52" font-family="Space Mono, monospace" font-size="15" fill="#0A0A0A" opacity="0.55" letter-spacing="3">GZ-004</text>
  <text x="766" y="52" text-anchor="end" font-family="Space Mono, monospace" font-size="15" fill="#0A0A0A" opacity="0.55" letter-spacing="3">ESPALDA</text>
  <text x="34" y="962" font-family="Space Mono, monospace" font-size="15" fill="#0A0A0A" opacity="0.55" letter-spacing="3">VERDE MILITAR</text>
  <text x="766" y="962" text-anchor="end" font-family="Space Mono, monospace" font-size="15" fill="#0A0A0A" opacity="0.55" letter-spacing="3">DROP 04</text>
</svg>